<?xml version="1.0" standalone="no"?>
<!DOCTYPE svg PUBLIC "-//W3C//DTD SVG 20010904//EN"
 "http://www.w3.org/TR/2001/REC-SVG-20010904/DTD/svg10.dtd">
<svg version="1.0" xmlns="http://www.w3.org/2000/svg"
 width="1024.000000pt" height="1024.000000pt" viewBox="0 0 1024.000000 1024.000000"
 preserveAspectRatio="xMidYMid meet">

<g transform="translate(0.000000,1024.000000) scale(0.100000,-0.100000)"
fill="#0ea6ec" stroke="none">
<path d="M6551 8684 c-69 -18 -167 -66 -206 -99 l-30 -26 43 26 c24 14 49 24
55 21 8 -3 8 -5 -1 -5 -22 -2 -44 -28 -29 -35 6 -4 1 -4 -13 -2 -23 5 -23 4
-7 -8 21 -16 21 -34 2 -60 -14 -19 -16 -19 -27 -3 -11 15 -18 16 -48 6 -58
-19 -64 -24 -98 -80 -52 -86 -82 -195 -82 -297 0 -106 19 -182 67 -274 48 -93
106 -154 191 -205 135 -80 269 -107 400 -79 83 17 192 64 257 111 63 44 151
170 187 268 60 157 39 346 -54 490 -132 204 -388 310 -607 251z m-116 -170
c-90 -67 -115 -84 -115 -76 0 11 73 70 102 82 33 13 36 11 13 -6z"/>
<path d="M6269 8523 c-24 -25 -24 -26 -1 -12 12 8 22 17 22 21 0 4 7 5 15 2 8
-4 15 -4 15 -1 0 18 -32 11 -51 -10z"/>
<path d="M4865 8506 c-234 -49 -280 -62 -431 -122 -346 -139 -557 -276 -779
-505 -161 -166 -270 -331 -378 -572 -101 -225 -173 -475 -198 -691 -18 -155
-6 -515 21 -641 27 -124 88 -315 146 -452 55 -131 59 -157 39 -213 -9 -25 -25
-88 -35 -140 -29 -145 -119 -561 -129 -595 -5 -16 -32 -103 -60 -193 -55 -176
-62 -229 -33 -255 36 -33 42 -32 497 140 88 33 216 84 283 112 135 56 295 111
326 111 10 0 64 -21 120 -46 133 -62 327 -130 452 -159 126 -30 335 -58 346
-47 5 5 -3 78 -17 163 -43 258 -76 362 -196 630 -126 281 -167 351 -352 593
-120 157 -117 142 -62 261 18 39 38 88 45 110 15 47 99 247 109 257 3 4 5 328
4 720 -2 871 4 1068 37 1153 38 100 145 188 267 220 81 21 264 30 338 16 91
-17 173 -62 239 -130 73 -77 107 -151 117 -256 4 -44 8 -446 8 -894 l1 -813
80 -247 c44 -136 80 -255 80 -264 0 -9 -31 -62 -69 -119 -183 -276 -258 -408
-344 -608 -72 -166 -114 -326 -171 -648 -8 -46 -22 -96 -30 -113 l-14 -29 96
0 c53 0 135 6 182 14 47 8 128 22 180 31 247 41 489 135 734 284 175 106 419
330 555 511 197 261 368 694 401 1013 13 129 13 459 -1 567 -11 93 -41 251
-65 345 -19 78 -85 245 -96 245 -4 0 -7 4 -6 8 6 17 -74 172 -85 165 -8 -5 -7
-8 1 -11 7 -2 12 -12 12 -22 0 -28 11 -51 21 -44 5 3 9 -4 9 -15 0 -11 6 -26
13 -33 8 -7 12 -19 9 -27 -3 -8 3 -20 13 -27 17 -13 17 -14 -4 -31 -25 -21
-27 -44 -11 -158 6 -44 9 -93 8 -110 -3 -28 -5 -30 -46 -27 l-42 4 2 -114 c2
-89 -1 -121 -14 -148 -9 -19 -20 -48 -25 -65 -7 -22 -17 -31 -35 -33 -19 -2
-28 -12 -38 -43 -9 -26 -19 -39 -32 -39 -10 0 -18 -7 -18 -15 0 -8 -9 -15 -20
-15 -11 0 -20 -4 -20 -10 0 -5 -18 -10 -39 -10 -22 0 -43 5 -46 10 -3 6 -11
10 -16 10 -6 0 -7 -5 -3 -12 5 -8 2 -9 -12 -4 -10 4 -40 10 -66 13 l-46 6 -10
-39 c-26 -98 -33 -196 -43 -574 -6 -223 -12 -406 -13 -407 -9 -10 -66 -14 -66
-5 0 6 10 12 23 15 21 3 21 4 2 12 -11 5 -24 13 -28 19 -6 8 -10 7 -14 -1 -6
-15 -63 -18 -63 -3 0 6 -27 10 -60 10 -33 0 -60 -4 -60 -10 0 -5 -18 -10 -39
-10 -22 0 -42 -6 -44 -12 -4 -8 -8 -4 -12 10 -4 12 -15 22 -25 22 -10 0 -32 3
-49 6 -27 6 -31 4 -31 -14 0 -12 -4 -23 -8 -26 -5 -3 -7 8 -4 23 2 16 0 31 -6
35 -6 3 -11 -74 -15 -207 -5 -210 -20 -316 -46 -325 -6 -2 -9 -8 -6 -12 3 -5
-4 -14 -15 -20 -15 -8 -20 -8 -20 2 -1 20 -21 -19 -24 -45 -1 -12 -7 -31 -14
-42 -11 -19 -11 -19 -12 5 -1 19 -6 12 -22 -28 -26 -65 -33 -63 -14 4 32 110
36 218 41 1199 3 545 5 995 4 1000 0 6 -3 309 -6 675 -3 491 -8 667 -16 672
-7 5 -74 28 -150 53 -135 45 -190 55 -482 90 -160 20 -175 19 -360 -19z m-789
-882 c63 -27 102 -63 134 -127 38 -76 40 -143 7 -219 -13 -29 -31 -59 -40 -66
-14 -12 -15 -10 -11 15 2 15 7 34 9 41 3 7 0 10 -5 7 -6 -3 -10 -13 -10 -21 0
-10 -5 -12 -17 -7 -28 13 -52 10 -133 -15 -41 -13 -81 -26 -89 -28 -9 -3 -12
-15 -9 -34 4 -27 3 -29 -21 -24 -38 9 -85 43 -109 78 -26 40 -52 118 -52 160
0 95 60 194 143 235 52 26 148 28 203 5z m-43 -450 c-4 -11 1 -22 12 -30 26
-19 4 -17 -23 2 -27 19 -29 44 -2 44 14 0 18 -5 13 -16z m60 -15 c-4 -12 -11
-18 -20 -15 -8 3 -17 6 -21 6 -8 0 31 29 40 30 3 0 4 -9 1 -21z m-81 -386 c90
-49 147 -160 135 -267 -6 -51 -32 -116 -47 -116 -4 0 -10 -8 -12 -18 -3 -11
-22 -32 -42 -47 -30 -23 -39 -26 -49 -15 -9 10 -9 11 0 6 14 -8 36 27 25 39
-4 5 0 6 9 3 12 -5 15 -1 11 18 -5 30 -21 41 -32 23 -6 -9 -12 -10 -22 -1 -7
6 -25 9 -38 7 -103 -16 -111 -18 -98 -27 10 -7 9 -12 -7 -23 -11 -9 -28 -22
-38 -31 -11 -8 -27 -16 -36 -17 -29 -2 -90 55 -117 110 -23 46 -26 63 -22 130
2 55 10 92 26 125 62 125 224 172 354 101z m1911 -1873 c-3 -12 -8 -19 -11
-16 -5 6 5 36 12 36 2 0 2 -9 -1 -20z m-229 -369 c-8 -16 -21 -34 -29 -41 -19
-16 -19 -50 0 -50 8 0 15 -9 15 -20 0 -14 -7 -20 -22 -20 -17 0 -19 -3 -9 -9
11 -7 9 -12 -10 -24 -13 -9 -36 -19 -51 -22 -16 -4 -28 -11 -28 -16 0 -5 -12
-9 -28 -9 -15 0 -35 -9 -45 -20 -16 -20 -57 -28 -57 -12 0 11 51 58 132 121
36 28 83 74 102 101 41 56 51 64 30 21z"/>
<path d="M3304 8371 c-83 -21 -144 -103 -144 -193 0 -131 79 -206 204 -196 32
3 66 14 93 31 87 55 120 197 64 275 -45 63 -145 101 -217 83z"/>
<path d="M4923 8201 c-64 -22 -110 -56 -148 -111 l-30 -43 -3 -174 -3 -173
353 0 353 0 -5 162 c-4 110 -10 171 -19 187 -27 49 -107 125 -156 147 -44 21
-65 24 -170 24 -89 -1 -133 -5 -172 -19z"/>
<path d="M4730 7470 l0 -90 339 0 c187 0 346 -3 355 -6 14 -5 16 6 16 90 l0
96 -355 0 -355 0 0 -90z"/>
<path d="M6069 7343 c-13 -16 -12 -17 4 -4 9 7 17 15 17 17 0 8 -8 3 -21 -13z"/>
<path d="M6024 7273 c-15 -27 -35 -57 -45 -68 -20 -23 -42 -95 -29 -95 5 0 20
26 35 58 14 31 37 78 50 105 14 26 23 47 20 47 -2 0 -16 -21 -31 -47z"/>
<path d="M4730 7144 l0 -99 352 2 353 2 3 91 3 90 -340 0 c-187 0 -346 3 -355
6 -14 5 -16 -7 -16 -92z"/>
<path d="M4927 6883 l-198 -3 3 -85 3 -84 353 -3 352 -3 0 93 0 92 -157 -2
c-87 -2 -247 -4 -356 -5z"/>
<path d="M4728 6393 l-5 -158 -52 -145 c-29 -80 -68 -182 -87 -227 l-35 -82
71 -88 c156 -193 241 -337 345 -584 l64 -154 1 266 c0 313 -4 357 -35 369 -11
4 -36 20 -54 35 -79 67 -100 190 -45 268 61 86 178 121 263 77 51 -25 109 -94
117 -138 18 -93 -22 -191 -97 -240 l-36 -24 -8 -176 c-8 -192 -14 -502 -8
-502 6 0 35 80 59 164 14 48 31 98 39 110 8 12 24 49 35 81 11 32 26 66 34 74
8 9 26 42 40 75 14 32 38 73 53 90 40 46 94 125 116 168 10 20 41 57 68 83
l49 46 -19 38 c-11 21 -50 123 -87 227 l-68 189 -4 158 -4 157 -353 0 -353 0
-4 -157z"/>
<path d="M7753 6081 c-40 -10 -94 -50 -129 -97 -39 -50 -46 -154 -15 -218 45
-91 123 -132 236 -123 68 5 107 22 160 69 114 100 94 267 -42 340 -54 30 -154
43 -210 29z"/>
<path d="M5017 5822 c-10 -10 -17 -29 -17 -41 0 -26 51 -81 75 -81 20 0 75 53
75 73 0 8 -9 26 -21 41 -25 32 -86 37 -112 8z"/>
<path d="M6032 5540 c0 -14 2 -19 5 -12 2 6 2 18 0 25 -3 6 -5 1 -5 -13z"/>
<path d="M7460 5361 c-150 -28 -261 -140 -296 -298 -29 -131 7 -256 104 -364
114 -127 328 -151 482 -54 85 54 160 165 178 265 41 222 -131 444 -352 455
-39 2 -91 0 -116 -4z"/>
<path d="M5102 4810 c0 -19 2 -27 5 -17 2 9 2 25 0 35 -3 9 -5 1 -5 -18z"/>
<path d="M6771 4399 c-15 -6 -21 -14 -17 -25 3 -8 2 -13 -3 -10 -9 6 -84 -44
-95 -63 -4 -6 -14 -7 -22 -4 -18 7 -16 -5 12 -84 19 -52 83 -109 138 -124 154
-42 314 100 292 258 -3 26 -10 50 -14 53 -4 4 -63 3 -131 -3 -79 -5 -126 -5
-130 1 -4 6 -15 6 -30 1z"/>
<path d="M3355 3935 c-61 -28 -89 -59 -88 -99 1 -38 26 -76 48 -76 21 0 25
-25 25 -141 l0 -109 -60 7 -60 6 0 -40 c0 -60 17 -77 74 -71 l46 6 -2 -272 -3
-271 -58 0 -57 0 0 -35 c0 -19 3 -51 6 -70 l6 -35 211 2 212 1 3 66 3 66 -39
0 c-22 0 -54 3 -71 6 l-31 7 0 511 c0 588 5 556 -83 556 -29 -1 -65 -7 -82
-15z"/>
<path d="M6302 3910 c-18 -11 -41 -34 -52 -52 -70 -115 62 -248 177 -178 86
52 80 175 -10 230 -41 25 -73 25 -115 0z"/>
<path d="M2206 3812 c-2 -4 -2 -36 1 -70 l6 -62 58 0 c36 0 63 -5 72 -14 20
-21 28 -226 20 -526 -7 -288 -4 -280 -100 -280 l-53 0 0 -65 0 -65 310 0 c190
0 329 4 362 11 136 29 243 123 269 236 9 39 8 60 -5 112 -26 100 -65 143 -173
186 l-54 22 55 31 c64 37 100 90 118 173 21 103 -37 220 -134 270 -81 42 -148
49 -455 49 -160 0 -294 -4 -297 -8z m576 -153 c21 -5 49 -24 67 -44 27 -31 31
-43 31 -94 0 -44 -6 -66 -23 -91 -38 -57 -76 -73 -193 -78 l-104 -5 0 168 0
168 93 -7 c50 -4 108 -12 129 -17z m67 -478 c76 -39 107 -116 77 -194 -35 -92
-90 -117 -258 -117 l-108 0 0 164 0 165 48 4 c92 9 200 -1 241 -22z"/>
<path d="M5188 3533 c-60 -3 -88 -8 -88 -16 -1 -34 -17 -38 -56 -15 -34 20
-53 23 -139 23 -85 0 -107 -4 -148 -23 -98 -49 -174 -154 -198 -275 -24 -116
26 -275 109 -348 25 -21 54 -39 64 -39 32 0 16 -22 -54 -75 -76 -57 -118 -115
-118 -161 0 -48 54 -113 124 -149 51 -25 72 -30 159 -33 163 -7 250 21 332
106 78 80 100 126 100 208 -1 61 -5 78 -29 114 -44 67 -109 91 -270 100 -136
7 -174 18 -196 60 -9 16 -1 17 118 13 126 -5 127 -5 182 25 104 56 149 152
135 287 l-7 64 43 12 c62 18 69 25 69 80 0 45 -2 49 -22 47 -13 -1 -62 -4
-110 -5z m-176 -152 c30 -27 33 -34 36 -102 6 -127 -46 -184 -166 -184 -61 0
-65 2 -98 37 -26 29 -34 46 -34 75 0 123 71 202 182 203 39 0 54 -5 80 -29z
m57 -600 c21 -16 23 -24 19 -70 -4 -37 -13 -62 -35 -89 -43 -55 -85 -72 -171
-72 -68 0 -76 2 -103 29 -42 43 -39 83 12 159 l42 62 106 0 c87 0 110 -4 130
-19z"/>
<path d="M5640 3526 c-75 -17 -129 -46 -185 -103 -71 -70 -88 -117 -93 -244
-5 -138 11 -198 72 -266 25 -27 63 -58 85 -68 23 -10 41 -21 41 -24 0 -4 -29
-23 -64 -44 -90 -52 -121 -94 -121 -168 0 -75 21 -103 109 -149 61 -31 77 -35
168 -38 259 -11 415 98 426 299 5 80 -11 117 -68 158 -49 35 -97 48 -227 60
-111 10 -184 36 -203 71 -6 12 -9 24 -7 27 3 3 37 -2 76 -11 73 -17 156 -20
210 -10 47 10 126 86 148 142 18 48 23 151 10 204 -7 26 -6 27 40 30 l48 3 0
70 0 70 -76 3 c-82 3 -129 -9 -129 -33 0 -17 -11 -20 -27 -4 -14 14 -111 39
-148 38 -16 0 -55 -6 -85 -13z m138 -120 c15 -8 38 -25 51 -39 48 -52 36 -189
-20 -243 -27 -26 -37 -29 -92 -28 -130 2 -184 63 -158 178 9 43 21 63 51 90
22 20 52 38 67 42 16 3 33 7 38 9 21 7 37 5 63 -9z m39 -622 c30 -4 49 -13 63
-31 25 -33 25 -52 -1 -109 -30 -64 -80 -88 -181 -88 -68 -1 -80 2 -102 23 -28
26 -51 94 -40 114 4 6 21 33 37 59 l30 47 76 -5 c42 -3 95 -7 118 -10z"/>
<path d="M6835 3528 c-27 -3 -87 -7 -133 -7 l-83 -1 3 -62 c3 -61 4 -63 28
-60 61 6 69 -30 70 -312 l0 -219 -49 7 c-27 4 -52 3 -54 -1 -2 -5 0 -35 6 -69
l10 -61 181 -6 c100 -4 191 -10 204 -13 21 -6 22 -4 22 69 l0 76 -62 3 -63 3
0 70 c0 39 2 130 6 203 6 129 7 134 35 163 62 65 156 79 214 30 35 -29 35 -29
38 -122 2 -52 -1 -180 -5 -285 l-8 -191 80 -7 c44 -3 108 -6 143 -6 l62 0 0
70 0 70 -46 0 -46 0 6 88 c4 48 11 114 17 147 29 193 -17 322 -141 390 -47 26
-65 30 -126 29 -79 -1 -157 -30 -208 -78 -15 -15 -29 -26 -31 -24 -1 2 -6 28
-11 58 l-9 55 -50 -7z"/>
<path d="M3967 3520 c-146 -37 -258 -169 -273 -321 -24 -248 135 -461 355
-477 82 -5 179 20 254 67 52 34 125 136 160 225 31 79 29 195 -4 266 -38 81
-127 173 -206 212 -58 28 -77 33 -157 35 -50 1 -108 -2 -129 -7z m188 -149
c91 -41 131 -129 123 -270 -6 -97 -41 -181 -90 -211 -40 -24 -131 -27 -182 -6
-65 27 -112 113 -122 223 -16 173 56 282 186 282 25 0 63 -8 85 -18z"/>
<path d="M7770 3514 c-82 -29 -149 -90 -188 -174 -35 -73 -37 -181 -4 -254 15
-32 22 -69 22 -110 1 -77 14 -100 79 -141 l53 -32 -75 -46 c-85 -54 -107 -81
-107 -134 0 -72 80 -161 163 -184 60 -16 212 -13 294 6 109 25 187 88 234 190
25 54 25 144 0 193 -44 87 -109 113 -301 122 -80 3 -151 9 -158 14 -34 21 -5
27 116 24 121 -3 129 -1 177 24 65 34 110 83 124 133 6 22 11 86 11 141 l0
101 40 6 c56 7 70 22 70 73 0 38 -3 44 -24 50 -14 3 -56 1 -95 -5 -93 -15
-138 -14 -186 4 -53 19 -188 18 -245 -1z m208 -152 c44 -44 54 -83 45 -165 -7
-66 -24 -99 -68 -133 -31 -23 -42 -26 -92 -22 -47 4 -60 10 -79 33 -47 60 -55
190 -16 258 20 36 83 66 135 67 30 0 44 -7 75 -38z m72 -587 c27 -14 30 -20
30 -66 0 -99 -76 -153 -213 -154 -74 0 -80 2 -102 28 -41 46 -42 89 -5 146 36
56 39 58 168 60 66 1 102 -3 122 -14z"/>
<path d="M6298 3513 l-128 -4 0 -28 c0 -16 3 -43 6 -61 7 -31 8 -32 49 -26
l42 7 6 -48 c2 -26 2 -145 -2 -263 l-6 -215 -48 -3 c-57 -4 -62 -12 -52 -87
l6 -54 198 0 198 0 6 62 c3 34 3 65 1 69 -3 4 -27 8 -54 8 -49 0 -49 0 -56 37
-7 35 -1 242 13 496 l6 117 -29 -2 c-16 -1 -86 -4 -156 -5z"/>
<path d="M6386 2125 c-3 -9 -6 -34 -6 -56 l0 -39 -50 0 -50 0 0 50 0 50 -35 0
-35 0 0 -141 c0 -125 2 -140 16 -135 9 3 22 6 30 6 10 0 14 14 14 50 0 48 1
50 29 50 16 0 43 3 61 7 l33 6 -7 -62 -7 -62 33 3 33 3 0 140 0 140 -26 3
c-17 2 -29 -3 -33 -13z"/>
<path d="M6604 2131 c-2 -2 -4 -67 -4 -143 l0 -138 101 0 100 0 -3 27 c-3 31
-26 40 -95 42 -36 1 -43 4 -43 21 0 16 8 19 58 22 54 3 57 4 60 31 3 27 2 27
-52 27 -52 0 -56 2 -56 23 0 23 3 23 56 19 60 -5 74 3 74 45 0 21 -5 22 -96
25 -53 2 -98 1 -100 -1z"/>
<path d="M7398 2127 l-97 -9 -7 -65 c-5 -53 1 -191 9 -199 2 -2 165 -7 185 -5
9 1 12 12 10 34 -3 32 -3 32 -65 35 -55 3 -63 6 -63 22 0 17 7 20 55 20 54 0
55 0 55 30 l0 30 -60 0 c-53 0 -60 2 -60 20 0 17 7 20 48 21 70 1 96 11 100
38 2 13 0 26 -5 30 -4 4 -52 3 -105 -2z"/>
<path d="M3573 2122 c-69 -21 -86 -91 -32 -136 23 -20 42 -26 75 -26 41 0 45
-2 42 -22 -2 -19 -10 -24 -40 -26 -20 -2 -47 2 -58 8 -24 13 -50 -1 -50 -26 0
-17 71 -54 105 -54 62 0 124 64 111 116 -8 31 -61 64 -103 64 -26 0 -33 4 -33
20 0 18 7 20 54 20 64 0 74 9 43 38 -24 23 -80 34 -114 24z"/>
<path d="M3949 2107 c-55 -37 -82 -84 -76 -135 6 -52 34 -85 93 -108 60 -23
108 -12 156 36 34 34 38 43 38 88 0 40 -5 57 -27 83 -51 60 -126 75 -184 36z
m118 -69 c28 -26 31 -78 5 -101 -10 -9 -32 -20 -49 -23 -26 -5 -37 -1 -57 19
-35 35 -35 79 0 106 34 27 72 27 101 -1z"/>
<path d="M4354 2087 c-35 -33 -46 -51 -50 -82 -7 -54 20 -104 71 -132 48 -27
70 -28 147 -7 l58 17 0 63 0 64 -59 0 c-33 0 -63 -5 -66 -10 -9 -15 14 -40 36
-40 25 0 24 -27 -1 -40 -45 -24 -100 15 -100 70 0 55 26 74 89 67 38 -4 53 -2
62 10 11 13 10 17 -6 29 -22 17 -80 34 -113 34 -14 0 -42 -18 -68 -43z"/>
<path d="M4840 1990 l0 -140 105 0 c93 0 105 2 105 18 0 33 -15 41 -80 44 -59
3 -65 5 -68 26 -3 21 0 22 57 22 58 0 61 1 61 24 0 24 -28 36 -85 36 -19 0
-35 17 -35 36 0 2 17 4 39 4 72 0 101 10 101 35 0 30 -16 35 -116 35 l-84 0 0
-140z"/>
<path d="M5220 2087 c0 -24 3 -85 6 -135 l7 -92 33 0 33 0 3 71 3 72 49 -67
c73 -100 111 -110 120 -33 23 187 19 227 -25 227 l-28 0 -3 -80 -3 -80 -55 74
c-53 73 -71 86 -117 86 -20 0 -23 -5 -23 -43z"/>
<path d="M5635 2120 c-7 -11 8 -41 43 -88 18 -24 27 -50 30 -90 6 -71 14 -82
64 -82 34 0 39 3 33 18 -22 55 -18 79 23 138 22 33 43 69 47 82 6 19 3 22 -24
22 -26 0 -33 -6 -50 -45 -23 -52 -34 -56 -51 -16 -18 45 -48 71 -80 71 -16 0
-32 -4 -35 -10z"/>
<path d="M6940 1991 l0 -141 34 0 c32 0 33 1 32 38 -1 53 29 51 67 -5 25 -39
31 -42 60 -36 18 3 34 7 36 9 3 3 -10 24 -44 70 -7 9 -2 21 18 42 38 40 37 89
-4 128 -28 27 -37 29 -115 33 l-84 3 0 -141z m150 44 c0 -17 -8 -29 -24 -37
-35 -16 -56 -4 -56 32 0 28 2 30 40 30 36 0 40 -2 40 -25z"/>
<path d="M4350 1641 c-19 -5 -26 -15 -28 -40 -4 -38 9 -51 49 -51 28 0 49 -16
49 -38 0 -11 -11 -12 -50 -7 -46 6 -50 5 -50 -13 0 -14 10 -24 35 -32 51 -17
76 -9 99 29 l20 34 -32 28 c-18 16 -45 29 -60 30 l-27 1 25 8 c14 4 37 11 53
14 27 6 39 36 13 36 -7 0 -26 2 -42 4 -16 3 -40 1 -54 -3z"/>
<path d="M4659 1635 c-27 -14 -49 -59 -49 -97 0 -31 63 -88 98 -88 38 0 94 38
106 73 14 38 -2 77 -43 104 -39 26 -74 29 -112 8z m95 -51 c32 -32 11 -84 -34
-84 -45 0 -77 59 -48 88 17 17 64 15 82 -4z"/>
<path d="M5000 1639 c-44 -18 -60 -40 -60 -82 0 -31 7 -46 34 -73 32 -32 52
-39 101 -35 32 3 67 49 63 85 -3 28 -7 31 -45 37 -37 5 -43 3 -43 -13 0 -12 7
-18 21 -18 33 0 22 -44 -13 -48 -44 -5 -77 65 -46 96 7 7 38 12 70 12 58 0 70
8 44 29 -19 16 -97 23 -126 10z"/>
<path d="M5297 1643 c-12 -11 -8 -130 5 -158 10 -23 16 -25 80 -25 54 0 68 3
68 15 0 11 -12 15 -45 15 -45 0 -45 0 -45 35 0 31 3 35 26 35 14 0 34 -5 45
-10 15 -8 19 -7 19 5 0 11 -11 15 -45 15 -41 0 -45 2 -45 24 0 21 6 24 52 30
37 5 48 10 38 16 -17 11 -143 13 -153 3z"/>
<path d="M6240 1476 c0 -12 12 -16 51 -16 66 0 62 24 -4 28 -37 2 -47 0 -47
-12z"/>
</g>
</svg>
