<?xml version="1.0" standalone="no"?>
<!DOCTYPE svg PUBLIC "-//W3C//DTD SVG 20010904//EN"
 "http://www.w3.org/TR/2001/REC-SVG-20010904/DTD/svg10.dtd">
<svg version="1.0" xmlns="http://www.w3.org/2000/svg"
 width="1024.000000pt" height="1024.000000pt" viewBox="0 0 1024.000000 1024.000000"
 preserveAspectRatio="xMidYMid meet">

<g transform="translate(0.000000,1024.000000) scale(0.100000,-0.100000)"
fill="#0ea6ec" stroke="none">
<path d="M8101 9124 c-337 -50 -840 -198 -1197 -352 -105 -45 -270 -140 -298
-170 -25 -29 -78 -219 -126 -455 -45 -217 -77 -330 -94 -324 -45 14 -71 197
-62 435 5 145 4 163 -10 169 -19 7 -14 9 -116 -68 -141 -109 -313 -304 -365
-416 -49 -107 -62 -177 -77 -439 -12 -192 -18 -240 -31 -253 -15 -15 -18 -14
-35 9 -41 54 -101 256 -120 405 -6 43 -14 83 -18 87 -5 5 -27 -20 -50 -54 -23
-35 -68 -101 -101 -148 -119 -172 -237 -429 -305 -667 -34 -117 -61 -301 -49
-326 3 -7 47 -51 98 -100 l91 -87 135 136 c186 190 180 184 330 330 74 71 163
157 199 189 36 32 245 232 465 445 517 500 821 778 1069 979 50 41 125 102
166 135 105 86 448 336 460 336 37 0 0 -41 -393 -435 -192 -193 -392 -395
-445 -450 -54 -55 -391 -390 -751 -745 -360 -355 -749 -739 -865 -854 l-210
-208 39 -32 c22 -17 66 -55 98 -83 33 -29 67 -53 76 -54 223 -10 573 56 788
149 146 63 357 199 411 265 8 9 -27 12 -156 12 -157 0 -172 2 -252 28 -46 16
-97 35 -112 43 -35 18 -96 71 -109 95 -9 18 2 18 248 17 248 -2 262 -1 363 24
134 34 264 89 354 149 75 50 335 304 323 315 -3 3 -42 1 -86 -5 -121 -18 -312
14 -423 70 -35 18 -55 49 -44 67 3 5 42 12 88 16 106 9 332 57 428 91 100 36
199 88 251 133 49 42 189 228 239 317 86 155 126 238 161 335 20 58 58 164 84
235 56 155 73 234 116 509 26 174 29 210 18 217 -17 11 -2 12 -198 -17z"/>
<path d="M4947 8265 c-71 -7 -148 -18 -170 -24 -23 -6 -100 -22 -171 -36 -293
-58 -683 -218 -941 -386 -295 -192 -627 -526 -828 -832 -267 -405 -410 -781
-462 -1212 -8 -71 -20 -163 -25 -203 -20 -149 0 -518 41 -746 41 -233 125
-474 270 -784 27 -57 49 -106 49 -108 0 -8 82 -134 87 -134 2 0 22 38 43 83
21 46 56 111 77 144 21 33 54 100 72 149 18 49 51 127 73 174 111 236 232 629
308 1000 41 201 73 335 85 360 18 34 105 84 309 176 94 43 261 123 371 180
110 56 221 109 246 119 l46 17 7 85 c12 139 57 238 143 312 64 55 140 84 225
85 66 1 68 2 68 27 0 55 32 205 66 312 85 269 208 505 362 702 79 100 442 458
480 474 18 8 31 19 29 25 -2 6 -76 20 -173 33 -196 25 -478 28 -687 8z"/>
<path d="M7622 7036 c-75 -114 -617 -682 -747 -780 -103 -78 -193 -128 -353
-195 -269 -113 -419 -152 -650 -167 -89 -6 -102 -9 -96 -23 58 -134 33 -277
-68 -387 -69 -75 -137 -114 -232 -130 -44 -8 -90 -13 -101 -12 -16 3 -22 -8
-37 -65 -10 -37 -40 -129 -68 -205 -27 -75 -59 -173 -70 -217 -12 -44 -37
-128 -56 -187 -19 -59 -34 -113 -34 -121 0 -7 -15 -44 -34 -83 -46 -97 -85
-126 -242 -187 -71 -27 -163 -63 -204 -78 -41 -16 -61 -27 -45 -25 136 22 171
22 1721 24 l1152 2 13 33 c7 17 35 70 62 117 27 47 60 112 73 146 l23 61 -677
-5 c-372 -3 -901 -1 -1174 3 l-497 7 47 68 c64 90 90 120 136 155 l39 29 1096
-3 1096 -3 12 59 c7 32 21 92 32 133 11 41 23 98 27 128 l6 53 -613 -6 c-338
-4 -768 -4 -956 0 l-343 7 18 31 c50 90 237 236 303 238 13 0 258 -5 544 -11
286 -6 637 -9 780 -8 l260 3 7 90 c3 50 8 122 10 162 l4 71 -36 6 c-19 3 -256
6 -526 6 -270 0 -546 3 -612 7 l-122 6 0 26 c0 39 25 69 68 81 58 16 330 29
767 35 238 3 422 10 453 17 81 17 79 22 118 -242 11 -78 17 -181 17 -320 1
-177 -2 -219 -22 -305 -12 -55 -33 -163 -46 -240 -28 -165 -55 -246 -170 -500
-81 -181 -137 -276 -208 -356 l-32 -36 -1590 1 c-874 1 -1558 -1 -1520 -4 40
-3 62 -8 50 -11 -11 -4 9 -5 45 -3 48 3 59 2 43 -5 -20 -9 -21 -13 -10 -42 9
-25 9 -33 0 -36 -8 -3 -13 -21 -13 -44 0 -32 3 -39 20 -39 13 0 20 -7 20 -20
0 -13 7 -20 20 -20 13 0 20 -7 20 -20 0 -17 7 -20 40 -20 36 0 40 -3 40 -24 0
-32 14 -40 39 -24 15 9 34 9 83 1 36 -6 67 -7 72 -2 6 5 36 9 68 9 51 0 58 -2
58 -19 0 -30 28 -34 214 -31 94 2 573 2 1064 2 l892 -2 12 -26 c12 -25 9 -30
-61 -95 -40 -38 -89 -78 -109 -88 -20 -10 -89 -26 -153 -35 -103 -14 -264 -16
-1435 -15 -725 0 -1378 4 -1451 8 -119 7 -138 11 -195 39 -36 17 -106 69 -161
118 -112 99 -111 99 -212 34 -33 -21 -93 -56 -134 -78 l-74 -40 29 -15 c16 -8
43 -30 59 -47 147 -156 599 -466 857 -588 130 -61 379 -148 537 -187 179 -43
539 -95 663 -95 349 1 805 86 1102 206 123 49 330 154 461 232 436 262 881
760 1126 1259 43 89 91 199 105 245 14 46 34 108 45 138 10 30 31 107 45 170
112 500 109 927 -12 1373 -36 137 -122 379 -172 488 -55 122 -258 475 -286
498 -10 9 -23 -3 -54 -53z m-1673 -4042 l102 -7 -3 -40 c-3 -37 -6 -41 -42
-53 -49 -18 -255 -62 -371 -80 -157 -25 -410 -29 -590 -10 -284 31 -410 55
-523 104 -41 17 -62 32 -60 41 4 21 78 41 188 51 105 9 1139 4 1299 -6z m169
-34 c26 -1 26 -1 -8 -20 -46 -25 -50 -25 -50 6 0 20 4 25 16 20 9 -3 28 -6 42
-6z"/>
<path d="M4729 6480 c-108 -57 -145 -171 -84 -263 9 -14 51 -54 93 -88 42 -35
113 -97 157 -139 44 -42 157 -142 250 -222 94 -80 181 -158 195 -173 70 -76
171 -73 247 6 41 44 53 77 53 146 0 55 -1 57 -58 112 -32 31 -129 116 -215
189 -86 74 -228 197 -314 274 -201 179 -244 200 -324 158z"/>
<path d="M4472 6044 c-35 -35 -416 -232 -637 -329 -71 -31 -153 -67 -180 -79
l-51 -23 -17 -129 c-70 -542 -269 -1129 -530 -1563 -48 -80 -91 -161 -97 -180
-32 -117 23 -191 119 -160 43 14 99 51 201 132 91 73 340 239 435 291 39 22
102 59 142 83 80 49 374 184 530 243 141 53 409 130 454 130 36 0 39 2 49 43
24 89 74 248 127 402 108 312 130 371 174 460 24 50 44 93 44 97 0 3 -58 57
-130 118 -71 62 -186 161 -255 221 -292 252 -323 279 -334 278 -6 -1 -26 -17
-44 -35z m-74 -724 c109 -55 162 -140 147 -239 -18 -121 -79 -212 -171 -257
-50 -25 -62 -26 -141 -21 l-85 5 -242 -242 c-132 -133 -290 -296 -350 -361
-204 -223 -339 -355 -363 -355 -13 0 -23 4 -23 8 0 5 24 45 53 88 30 43 69
102 87 129 85 126 267 351 387 479 73 78 158 175 189 216 31 41 74 93 95 116
l39 40 -15 50 c-37 121 -7 235 80 312 54 48 90 60 181 61 60 1 80 -4 132 -29z"/>
<path d="M4223 5213 c-31 -6 -81 -55 -89 -87 -10 -40 13 -105 51 -143 27 -27
41 -33 75 -33 93 0 150 56 150 146 0 42 -5 55 -27 76 -16 14 -46 31 -68 37
-41 11 -53 12 -92 4z"/>
<path d="M4128 3943 c6 -2 18 -2 25 0 6 3 1 5 -13 5 -14 0 -19 -2 -12 -5z"/>
<path d="M4070 3929 c0 -5 5 -7 10 -4 6 3 10 8 10 11 0 2 -4 4 -10 4 -5 0 -10
-5 -10 -11z"/>
<path d="M4010 3914 c-33 -13 -33 -14 -5 -8 17 3 34 10 40 15 11 11 8 11 -35
-7z"/>
<path d="M3915 3880 c-22 -11 -29 -17 -15 -14 38 10 70 23 70 29 0 9 -14 5
-55 -15z"/>
<path d="M3655 3745 c-71 -41 -129 -79 -128 -84 2 -6 -3 -8 -11 -5 -8 3 -17 0
-21 -6 -9 -14 -6 -17 29 -26 20 -5 27 -4 22 4 -11 19 36 58 151 126 68 39 107
67 91 66 -2 -1 -61 -34 -133 -75z"/>
<path d="M4838 3603 c6 -2 18 -2 25 0 6 3 1 5 -13 5 -14 0 -19 -2 -12 -5z"/>
<path d="M4728 3593 c7 -3 16 -2 19 1 4 3 -2 6 -13 5 -11 0 -14 -3 -6 -6z"/>
</g>
</svg>
